<svg width="32" height="32" viewBox="0 0 32 32" fill="none" xmlns="http://www.w3.org/2000/svg">
<path fill-rule="evenodd" clip-rule="evenodd" d="M27.3736 15.2934C27.5608 15.4809 27.666 15.735 27.666 16C27.666 16.265 27.5608 16.5192 27.3736 16.7067L19.3736 24.7067C19.282 24.805 19.1716 24.8838 19.0489 24.9384C18.9263 24.9931 18.7939 25.0225 18.6596 25.0248C18.5253 25.0272 18.3919 25.0025 18.2674 24.9522C18.1429 24.9019 18.0298 24.827 17.9348 24.7321C17.8399 24.6371 17.765 24.524 17.7147 24.3995C17.6644 24.275 17.6397 24.1416 17.6421 24.0073C17.6445 23.8731 17.6739 23.7407 17.7285 23.618C17.7832 23.4953 17.862 23.3849 17.9602 23.2934L24.2536 17H5.33356C5.06834 17 4.81399 16.8947 4.62645 16.7071C4.43892 16.5196 4.33356 16.2653 4.33356 16C4.33356 15.7348 4.43892 15.4805 4.62645 15.2929C4.81399 15.1054 5.06834 15 5.33356 15H24.2536L17.9602 8.70671C17.862 8.61516 17.7832 8.50476 17.7285 8.38209C17.6739 8.25943 17.6445 8.12701 17.6421 7.99274C17.6397 7.85847 17.6644 7.7251 17.7147 7.60058C17.765 7.47606 17.8399 7.36295 17.9348 7.26799C18.0298 7.17303 18.1429 7.09817 18.2674 7.04788C18.3919 6.99758 18.5253 6.97288 18.6596 6.97525C18.7939 6.97762 18.9263 7.00701 19.0489 7.06167C19.1716 7.11632 19.282 7.19513 19.3736 7.29337L27.3736 15.2934Z" fill="white"/>
</svg>
