<svg width="142" height="28" viewBox="0 0 142 28" fill="none" xmlns="http://www.w3.org/2000/svg">
<g clip-path="url(#clip0_4001_17614)">
<path d="M133.69 2.82569H141.237C141.659 2.82569 142 2.46637 142 2.02314V0.802548C142 0.359313 141.659 0 141.237 0H121.751C121.329 0 120.988 0.359314 120.988 0.802549V2.02314C120.988 2.46637 121.329 2.82569 121.751 2.82569H129.295C129.577 2.82569 129.804 3.06523 129.804 3.36072V27.1975C129.804 27.6407 130.145 28 130.566 28H132.419C132.841 28 133.182 27.6407 133.182 27.1975V3.36072C133.182 3.06523 133.41 2.82569 133.69 2.82569Z" fill="white"/>
<path d="M121.242 27.1083V26.1094C121.242 25.617 120.863 25.2177 120.395 25.2177H107.427C107.24 25.2177 107.088 25.058 107.088 24.861V0.89172C107.088 0.399236 106.708 0 106.241 0H104.551C104.084 0 103.704 0.399236 103.704 0.89172V27.1083C103.704 27.6008 104.084 28 104.551 28H120.395C120.863 28 121.242 27.6008 121.242 27.1083Z" fill="white"/>
<path d="M80.9787 23.1621C79.6949 21.9062 79.0526 20.0223 79.0526 17.5107V0.89172C79.0526 0.399236 78.6732 0 78.2053 0H76.6766C76.2087 0 75.8293 0.399237 75.8293 0.89172V17.4681C75.8294 20.8931 76.7336 23.5046 78.5417 25.3028C80.376 27.1011 83.0233 28 86.4827 28C89.915 28 92.5355 27.1011 94.3444 25.3028C96.1787 23.5046 97.0955 20.8931 97.0955 17.4681V0.89172C97.0955 0.399236 96.7159 0 96.2482 0H94.7197C94.2512 0 93.8725 0.399237 93.8725 0.89172V17.5107C93.8725 20.0223 93.2167 21.9062 91.9069 23.1621C90.6233 24.3893 88.8144 25.0032 86.4827 25.0032C84.124 25.0032 82.2891 24.3894 80.9787 23.1621Z" fill="white"/>
<path d="M66.6344 0.337079C65.3504 0.112223 63.9592 2.13964e-05 62.4612 0C59.2237 0 56.8157 0.675016 55.237 2.02443C53.6585 3.34568 52.8687 5.1585 52.8687 7.46361C52.8687 9.43136 53.4442 11.0059 54.5945 12.1867C55.745 13.3392 57.7384 14.2812 60.5745 15.0123C62.367 15.462 63.7984 15.9118 64.8687 16.3615C65.9388 16.7831 66.7012 17.3174 67.1561 17.9639C67.6377 18.5824 67.8786 19.4261 67.8786 20.4944C67.8786 22.2092 67.3032 23.4035 66.1528 24.0782C65.0024 24.7247 63.277 25.0483 60.9762 25.0483C59.6384 25.0483 58.3271 24.9362 57.0428 24.7112C56.1258 24.5268 55.2442 24.2898 54.3982 24.0006C53.9469 23.8463 53.4712 24.1921 53.4712 24.6915V26.1347C53.4712 26.498 53.6796 26.8275 54.0054 26.9476C55.9103 27.6495 58.3277 28 61.257 28C64.5476 28 67.0223 27.3537 68.6812 26.0607C70.3399 24.7393 71.1694 22.8839 71.1694 20.4944C71.1694 19.2012 70.9285 18.0488 70.4469 17.0367C69.9653 16.0247 69.1358 15.153 67.9586 14.4221C66.7813 13.6631 65.1363 13.0158 63.0228 12.4817C61.2569 12.0319 59.8785 11.611 58.8887 11.2174C57.8987 10.7958 57.1902 10.3032 56.762 9.74106C56.3607 9.15074 56.1595 8.39133 56.1595 7.46361C56.1595 5.80526 56.7483 4.63855 57.9253 3.96385C59.1025 3.28913 60.789 2.95165 62.9828 2.95165C64.1867 2.95165 65.3508 3.04993 66.4746 3.24671C67.2505 3.38261 67.9881 3.55912 68.6874 3.77569C69.1379 3.91519 69.6045 3.56961 69.6045 3.07539V1.68954C69.6045 1.30931 69.3758 0.968755 69.0277 0.867114C68.3955 0.682528 67.5978 0.505769 66.6344 0.337079Z" fill="white"/>
<path d="M49.1992 0.47374C48.5991 -0.157969 47.6261 -0.157858 47.0258 0.47374L23.4954 25.239C22.8955 25.8707 22.8953 26.8949 23.4954 27.5266C24.0956 28.1578 25.0687 28.1578 25.6689 27.5266L49.1992 2.76133C49.7993 2.12968 49.7992 1.10548 49.1992 0.47374Z" fill="white"/>
<path d="M48.5737 11.1769C47.9734 10.5452 47.0005 10.5452 46.4002 11.1769L33.0388 25.2394C32.439 25.8712 32.4388 26.8954 33.0388 27.527C33.639 28.1583 34.6122 28.1583 35.2124 27.527L48.5737 13.4644C49.1738 12.8329 49.1735 11.8088 48.5737 11.1769Z" fill="white"/>
<path d="M39.0302 1.13193C38.43 0.500306 37.4571 0.500285 36.8568 1.13193L23.4954 15.1945C22.8955 15.8261 22.8954 16.8503 23.4954 17.4821C24.0957 18.1135 25.0688 18.1135 25.6689 17.4821L39.0302 3.4195C39.6304 2.7878 39.6303 1.76367 39.0302 1.13193Z" fill="white"/>
<path fill-rule="evenodd" clip-rule="evenodd" d="M11.6402 0C14.4921 0 16.5633 0.781959 17.8521 2.34718C19.1683 3.91243 19.8258 6.029 19.8258 8.69568C19.8258 10.7535 19.3465 12.464 18.3867 13.8262C17.4543 15.1885 16.0552 16.1015 14.1905 16.5653C14.7389 16.9131 15.1505 17.3185 15.4248 17.7822C15.7264 18.217 16.0285 18.8116 16.3301 19.5653L19.071 26.2574C19.4086 27.0814 18.8344 28 17.9818 28H17.1064C16.6349 28 16.2082 27.706 16.0194 27.2512L12.9564 19.8695C12.6 19 12.1613 18.3766 11.6402 17.9998C11.1466 17.6231 10.2556 17.4347 8.96701 17.4347H3.37275V26.7516C3.37275 27.4411 2.84169 28 2.1866 28H1.18616C0.531061 28 0 27.4411 0 26.7516V1.24841C0 0.558932 0.531061 0 1.18616 0H11.6402ZM10.6949 14.6523H4.13528C3.71415 14.6523 3.37275 14.293 3.37275 13.8497V3.62824C3.37275 3.18501 3.71416 2.82569 4.13528 2.82569H11.1467C14.684 2.82569 16.4531 4.78261 16.4531 8.69568C16.4529 10.7826 15.932 12.3046 14.8901 13.2611C13.8755 14.1885 12.477 14.6522 10.6949 14.6523Z" fill="white"/>
</g>
<defs>
<clipPath id="clip0_4001_17614">
<rect width="142" height="28" fill="white"/>
</clipPath>
</defs>
</svg>
