<svg width="160" height="170" viewBox="0 0 160 170" fill="none" xmlns="http://www.w3.org/2000/svg">
<path d="M157.294 2.86438C153.685 -0.955129 147.832 -0.954455 144.222 2.86438L2.70612 152.602C-0.901529 156.422 -0.902548 162.615 2.70612 166.434C6.3158 170.251 12.1685 170.251 15.7782 166.434L157.294 16.6958C160.902 12.8767 160.902 6.68408 157.294 2.86438Z" fill="url(#paint0_linear_1690_30834)"/>
<path d="M153.534 67.5755C149.924 63.7561 144.072 63.7561 140.462 67.5755L60.1046 152.602C56.4969 156.422 56.4959 162.614 60.1046 166.433C63.7142 170.25 69.567 170.25 73.1767 166.433L153.534 81.4066C157.143 77.5882 157.142 71.396 153.534 67.5755Z" fill="url(#paint1_linear_1690_30834)"/>
<path d="M96.1356 6.83985C92.5254 3.02089 86.6742 3.02077 83.064 6.83985L2.70631 91.8661C-0.901847 95.6855 -0.902357 101.878 2.70631 105.698C6.3165 109.516 12.1687 109.516 15.7784 105.698L96.1356 20.6712C99.7448 16.8518 99.7443 10.6596 96.1356 6.83985Z" fill="url(#paint2_linear_1690_30834)"/>
<defs>
<linearGradient id="paint0_linear_1690_30834" x1="52.7059" y1="-8.26735" x2="85.6038" y2="165.74" gradientUnits="userSpaceOnUse">
<stop stop-color="#00D540"/>
<stop offset="1" stop-color="#0357C4"/>
</linearGradient>
<linearGradient id="paint1_linear_1690_30834" x1="89.9581" y1="59.6037" x2="110.281" y2="167.099" gradientUnits="userSpaceOnUse">
<stop stop-color="#00D540"/>
<stop offset="1" stop-color="#0357C4"/>
</linearGradient>
<linearGradient id="paint2_linear_1690_30834" x1="32.5598" y1="-1.1317" x2="52.883" y2="106.364" gradientUnits="userSpaceOnUse">
<stop stop-color="#00D540"/>
<stop offset="1" stop-color="#0357C4"/>
</linearGradient>
</defs>
</svg>
