<svg width="24" height="24" viewBox="0 0 24 24" fill="none" xmlns="http://www.w3.org/2000/svg">
<path d="M23.5941 0.406063C23.0527 -0.135402 22.1748 -0.135306 21.6333 0.406063L0.405917 21.6334C-0.135229 22.1749 -0.135382 23.0527 0.405917 23.5942C0.94737 24.1353 1.82528 24.1353 2.36673 23.5942L23.5941 2.36685C24.1354 1.82544 24.1353 0.947556 23.5941 0.406063Z" fill="url(#paint0_linear_1654_22821)"/>
<path d="M23.0316 9.57955C22.4901 9.0381 21.6124 9.0381 21.0709 9.57955L9.01725 21.6331C8.4761 22.1746 8.47595 23.0526 9.01725 23.5939C9.5587 24.135 10.4366 24.135 10.9781 23.5939L23.0316 11.5403C23.573 10.999 23.5728 10.1212 23.0316 9.57955Z" fill="url(#paint1_linear_1654_22821)"/>
<path d="M14.4203 0.969707C13.8788 0.42832 13.0011 0.428301 12.4596 0.969707L0.405946 13.0233C-0.135277 13.5647 -0.135354 14.4426 0.405946 14.9841C0.947475 15.5253 1.82531 15.5253 2.36676 14.9841L14.4203 2.93048C14.9617 2.38903 14.9616 1.5112 14.4203 0.969707Z" fill="url(#paint2_linear_1654_22821)"/>
<defs>
<linearGradient id="paint0_linear_1654_22821" x1="12" y1="0" x2="12" y2="24" gradientUnits="userSpaceOnUse">
<stop stop-color="#0357C4"/>
<stop offset="1" stop-color="#00D540"/>
</linearGradient>
<linearGradient id="paint1_linear_1654_22821" x1="16.0245" y1="9.17346" x2="16.0245" y2="23.9997" gradientUnits="userSpaceOnUse">
<stop stop-color="#0357C4"/>
<stop offset="1" stop-color="#00D540"/>
</linearGradient>
<linearGradient id="paint2_linear_1654_22821" x1="7.41317" y1="0.56366" x2="7.41317" y2="15.39" gradientUnits="userSpaceOnUse">
<stop stop-color="#0357C4"/>
<stop offset="1" stop-color="#00D540"/>
</linearGradient>
</defs>
</svg>
